<svg id="Layer_1" data-name="Layer 1" xmlns="http://www.w3.org/2000/svg" viewBox="0 0 1058 173.95"><defs><style>.cls-1{fill:#0ec628;}.cls-2{fill:#61f77a;}.cls-3{fill:#fff;stroke:#000;stroke-miterlimit:10;}</style></defs><title>giga-full-without-bg</title><rect class="cls-1" width="172.11" height="2.88"/><path class="cls-2" d="M299.1,468.52s-36.73-149.06-62.25-149.06-62.24,149.06-62.24,149.06S213.85,349.4,236.89,349.4,299.1,468.52,299.1,468.52Z" transform="translate(-150.8 -295)"/><path class="cls-3" d="M151.92,456.71" transform="translate(-150.8 -295)"/><path class="cls-3" d="M160.19,467.34" transform="translate(-150.8 -295)"/><path class="cls-1" d="M174.25,469c45.49-129.09,62.31-119.48,63-119.48-5.87-.62-8.63,2-15.79-4.63-4.3-3.95-6.7,2.23-6.7,1-19.23,41.54-29.52,83.6-40.17,122.56" transform="translate(-150.8 -295)"/><path d="M383.8,324.9q-13.79,0-24.19,6.49a43.09,43.09,0,0,0-16.09,18.09q-5.7,11.63-5.69,27.15,0,15.71,5.85,27.15A42.6,42.6,0,0,0,360,421.48a46.58,46.58,0,0,0,24.27,6.25,55.42,55.42,0,0,0,14.09-1.85,37.31,37.31,0,0,0,13-6.24,31.27,31.27,0,0,0,9.53-12.18q3.6-7.75,3.6-19.46V376.15l3.68,3.69H380.27v-7h51.58v60.54h-5.77l-1.28-25.62,1.28,2.72a32,32,0,0,1-8.25,12.33,43.82,43.82,0,0,1-14.25,9,50.79,50.79,0,0,1-19,3.36q-16.19,0-28.51-7.2a49.81,49.81,0,0,1-19.22-20.35Q330,394.42,330,376.79q0-17.44,6.81-30.83a51.44,51.44,0,0,1,19-20.9q12.17-7.53,28-7.53a52.78,52.78,0,0,1,21.06,4.09,44.68,44.68,0,0,1,16,11.37A39.52,39.52,0,0,1,429.77,350h-8.49q-4-12.33-14-18.73T383.8,324.9Z" transform="translate(-150.8 -295)"/><path d="M456.51,332.75a6.45,6.45,0,0,1-4.72-2,6.29,6.29,0,0,1-2-4.57,6.7,6.7,0,0,1,2-4.8,6.39,6.39,0,0,1,9.45,0,6.73,6.73,0,0,1,2,4.8,6.32,6.32,0,0,1-2,4.57A6.49,6.49,0,0,1,456.51,332.75Zm-3.68,100.42V356.29h7.36v76.88Z" transform="translate(-150.8 -295)"/><path d="M478.77,392.33A41.81,41.81,0,0,1,483,373.51a34.84,34.84,0,0,1,12.25-13.85q8-5.3,19.38-5.29,11.54,0,19.62,5.93t11.61,17.13l-1.44,2.41,1.28-23.55h5.93v75.28a38.19,38.19,0,0,1-4.49,18.82A31.79,31.79,0,0,1,534.67,463a37.74,37.74,0,0,1-18.74,4.49q-13.93,0-23.3-7.45t-11.77-20.58h7.2q2.25,10.08,9.61,15.69t18.42,5.61q12.81,0,20.58-8t7.77-21.14V405.3l1.28,2.08a32.5,32.5,0,0,1-12,16.82,33.18,33.18,0,0,1-19.86,6.09q-11.06,0-18.9-5.29a34.53,34.53,0,0,1-12-13.93A42.58,42.58,0,0,1,478.77,392.33Zm7.53,0A37,37,0,0,0,489.58,408a27.07,27.07,0,0,0,9.61,11.37,26.55,26.55,0,0,0,15.14,4.24A28.76,28.76,0,0,0,530,419.48a26.24,26.24,0,0,0,9.85-11.21,40.31,40.31,0,0,0,.08-32,26.2,26.2,0,0,0-9.61-11.05q-6.33-4.08-15.62-4.08-9.13,0-15.46,4.32a27.76,27.76,0,0,0-9.61,11.37A36.49,36.49,0,0,0,486.3,392.33Z" transform="translate(-150.8 -295)"/><path d="M597.78,435.09q-12.35,0-19.14-6.24a20.78,20.78,0,0,1-6.81-16q0-10.57,7.69-17t21.14-7.52l26.43-2.09v-2.88q0-8.66-3.05-13.53a16.11,16.11,0,0,0-8.16-6.81,31.77,31.77,0,0,0-11.22-1.92q-10.73,0-16.73,4.72t-6,13.22h-7.37A22.65,22.65,0,0,1,578.32,366,24.46,24.46,0,0,1,589,357.41a39,39,0,0,1,15.85-3,38.39,38.39,0,0,1,15,2.8,23.23,23.23,0,0,1,10.65,9q4,6.17,4,16.1v50.93h-5.92l-1.44-14.41a28.1,28.1,0,0,1-11.7,12.09A35.79,35.79,0,0,1,597.78,435.09Zm1-6.56q13.6,0,21-9t7.37-23.07v-4.16l-25.79,2.08q-11.7,1-16.9,6.09a16.5,16.5,0,0,0-5.2,12.17q0,7.84,5.44,11.85T598.74,428.53Z" transform="translate(-150.8 -295)"/><path d="M665.84,433.17h-7.36V317.53h7.36Z" transform="translate(-150.8 -295)"/><path d="M722.06,435.09a36.68,36.68,0,0,1-19.38-5,34.49,34.49,0,0,1-13-14.1,45.45,45.45,0,0,1-4.65-21.06,46.59,46.59,0,0,1,4.57-21.14,34.87,34.87,0,0,1,12.65-14.25,37.14,37.14,0,0,1,36.52-.65,31.22,31.22,0,0,1,11.85,12.42,38.59,38.59,0,0,1,4.24,18.5v5.12H689.23l.32-6.08h57.82q0-12.49-7.21-20.11t-19.06-7.6a27.88,27.88,0,0,0-15,4A27.05,27.05,0,0,0,696,376.39a37.7,37.7,0,0,0-3.6,16.9q0,16.5,7.85,25.79t21.78,9.29q10.25,0,16.66-4.41a21.71,21.71,0,0,0,8.65-12.89h7.52q-3.36,11.85-11.61,17.94T722.06,435.09Z" transform="translate(-150.8 -295)"/><path d="M790.77,433.17,758.9,356.29h7.85l22.9,55.9c.85,2,1.68,4.08,2.48,6.17s1.63,4.51,2.49,7.28c.85-2.77,1.68-5.18,2.48-7.2s1.62-4.11,2.48-6.25l22.9-55.9h7.69L798.3,433.17Z" transform="translate(-150.8 -295)"/><path d="M871.17,435.09a36.71,36.71,0,0,1-19.38-5,34.56,34.56,0,0,1-13-14.1,45.45,45.45,0,0,1-4.64-21.06,46.72,46.72,0,0,1,4.56-21.14,34.87,34.87,0,0,1,12.65-14.25,37.14,37.14,0,0,1,36.52-.65,31.22,31.22,0,0,1,11.85,12.42,38.6,38.6,0,0,1,4.25,18.5v5.12H838.34l.32-6.08h57.82q0-12.49-7.21-20.11t-19.06-7.6a27.88,27.88,0,0,0-15,4,27,27,0,0,0-10.09,11.29,37.7,37.7,0,0,0-3.61,16.9q0,16.5,7.85,25.79t21.78,9.29q10.26,0,16.66-4.41a21.71,21.71,0,0,0,8.65-12.89H904Q900.65,422.92,892.4,429T871.17,435.09Z" transform="translate(-150.8 -295)"/><path d="M959.26,355.17v6.41H953.5q-10.74,0-17.14,7T930,386.4v46.77h-7.36V356.29h6.88l.8,14.74h-.8a19.48,19.48,0,0,1,7.93-12.1,25.2,25.2,0,0,1,15.14-4.56,30.67,30.67,0,0,1,3.28.16A25.9,25.9,0,0,1,959.26,355.17Z" transform="translate(-150.8 -295)"/><path d="M993.22,435.09q-12.33,0-19.14-6.24a20.78,20.78,0,0,1-6.81-16q0-10.57,7.69-17t21.14-7.52l26.43-2.09v-2.88q0-8.66-3-13.53a16.13,16.13,0,0,0-8.17-6.81,31.75,31.75,0,0,0-11.21-1.92q-10.74,0-16.74,4.72t-6,13.22H970A22.65,22.65,0,0,1,973.76,366a24.52,24.52,0,0,1,10.65-8.57,39.05,39.05,0,0,1,15.86-3,38.34,38.34,0,0,1,15,2.8,23.23,23.23,0,0,1,10.65,9q4,6.17,4,16.1v50.93H1024l-1.44-14.41a28.13,28.13,0,0,1-11.69,12.09A35.86,35.86,0,0,1,993.22,435.09Zm1-6.56q13.61,0,21-9t7.37-23.07v-4.16l-25.79,2.08q-11.68,1-16.89,6.09a16.51,16.51,0,0,0-5.21,12.17q0,7.84,5.45,11.85C983.71,427.19,988.42,428.53,994.18,428.53Z" transform="translate(-150.8 -295)"/><path d="M1047.51,392.33a41.81,41.81,0,0,1,4.25-18.82A34.84,34.84,0,0,1,1064,359.66q8-5.3,19.38-5.29,11.53,0,19.62,5.93t11.61,17.13l-1.44,2.41,1.28-23.55h5.93v75.28a38.19,38.19,0,0,1-4.49,18.82A31.79,31.79,0,0,1,1103.41,463a37.74,37.74,0,0,1-18.74,4.49q-13.93,0-23.3-7.45t-11.77-20.58h7.2q2.25,10.08,9.61,15.69t18.42,5.61q12.81,0,20.58-8t7.77-21.14V405.3l1.28,2.08a32.5,32.5,0,0,1-12,16.82,33.18,33.18,0,0,1-19.86,6.09q-11.05,0-18.9-5.29a34.53,34.53,0,0,1-12-13.93A42.58,42.58,0,0,1,1047.51,392.33Zm7.53,0a36.87,36.87,0,0,0,3.29,15.62,27,27,0,0,0,9.6,11.37,26.55,26.55,0,0,0,15.14,4.24,28.76,28.76,0,0,0,15.62-4.08,26.24,26.24,0,0,0,9.85-11.21,40.31,40.31,0,0,0,.08-32,26.2,26.2,0,0,0-9.61-11.05q-6.33-4.08-15.62-4.08-9.14,0-15.46,4.32a27.66,27.66,0,0,0-9.6,11.37A36.34,36.34,0,0,0,1055,392.33Z" transform="translate(-150.8 -295)"/><path d="M1176,435.09a36.73,36.73,0,0,1-19.38-5,34.56,34.56,0,0,1-13-14.1,45.45,45.45,0,0,1-4.64-21.06,46.72,46.72,0,0,1,4.56-21.14,35,35,0,0,1,12.65-14.25,37.14,37.14,0,0,1,36.52-.65,31.22,31.22,0,0,1,11.85,12.42,38.6,38.6,0,0,1,4.25,18.5v5.12h-65.67l.32-6.08h57.82q0-12.49-7.21-20.11T1175,361.1a27.88,27.88,0,0,0-15,4,27,27,0,0,0-10.09,11.29,37.7,37.7,0,0,0-3.61,16.9q0,16.5,7.85,25.79t21.78,9.29q10.26,0,16.66-4.41a21.71,21.71,0,0,0,8.65-12.89h7.53q-3.36,11.85-11.61,17.94T1176,435.09Z" transform="translate(-150.8 -295)"/></svg>